<?xml version="1.0" encoding="UTF-8" standalone="no"?>
<svg
   xmlns:dc="http://purl.org/dc/elements/1.1/"
   xmlns:cc="http://creativecommons.org/ns#"
   xmlns:rdf="http://www.w3.org/1999/02/22-rdf-syntax-ns#"
   xmlns:svg="http://www.w3.org/2000/svg"
   xmlns="http://www.w3.org/2000/svg"
   xmlns:xlink="http://www.w3.org/1999/xlink"
   xmlns:sodipodi="http://sodipodi.sourceforge.net/DTD/sodipodi-0.dtd"
   xmlns:inkscape="http://www.inkscape.org/namespaces/inkscape"
   version="1.1"
   id="Calque_1"
   x="0px"
   y="0px"
   viewBox="0 0 250 40"
   style="enable-background:new 0 0 250 40;"
   xml:space="preserve"
   sodipodi:docname="consotracker.svg"
   inkscape:version="1.0.2 (e86c870879, 2021-01-15, custom)"><metadata
   id="metadata42"><rdf:RDF><cc:Work
       rdf:about=""><dc:format>image/svg+xml</dc:format><dc:type
         rdf:resource="http://purl.org/dc/dcmitype/StillImage" /><dc:title></dc:title></cc:Work></rdf:RDF></metadata><defs
   id="defs40" /><sodipodi:namedview
   pagecolor="#ffffff"
   bordercolor="#666666"
   borderopacity="1"
   objecttolerance="10"
   gridtolerance="10"
   guidetolerance="10"
   inkscape:pageopacity="0"
   inkscape:pageshadow="2"
   inkscape:window-width="1920"
   inkscape:window-height="1051"
   id="namedview38"
   showgrid="false"
   inkscape:zoom="4"
   inkscape:cx="194.9603"
   inkscape:cy="27.306"
   inkscape:window-x="-9"
   inkscape:window-y="-9"
   inkscape:window-maximized="1"
   inkscape:current-layer="Calque_1"
   inkscape:snap-text-baseline="false" />
<style
   type="text/css"
   id="style2">
	.st0{enable-background:new    ;}
</style>
<image
   xlink:href="../../../../../A4BD789EA9751791.png"
   transform="matrix(0.9741 0 0 0.9741 12.8736 1.406)"
   id="noun_virus_3166287-2"
   height="89"
   width="125"
   style="display:none;overflow:visible;enable-background:new    ;">
</image>


<g
   transform="translate(0,-280.06665)"
   id="g35">
	<path
   d="m 30,282.1 h -0.8 c -8.8,0.4 -15.6,7.8 -15.2,16.5 0.4,8.7 7.8,15.6 16.5,15.2 3,-0.1 5.8,-1.1 8.1,-2.6 l 7.4,7 c 0.3,0.2 0.6,0.2 0.9,0 v 0 l 4.2,-4.6 c 0.2,-0.3 0.2,-0.6 0,-0.9 l -7.4,-7 c 1.4,-2.5 2.1,-5.4 2,-8.4 -0.3,-8.5 -7.3,-15.1 -15.7,-15.2 z m 0,1.2 c 7.8,0.1 14.2,6.2 14.5,14.1 0.1,2.9 -0.6,5.7 -2,8 l -0.1,0.1 c -1,1.7 -2.4,3.2 -4.1,4.4 h -0.1 c -2.2,1.6 -4.9,2.5 -7.8,2.7 -8.1,0.3 -14.9,-6 -15.2,-14 -0.3,-8.1 6,-14.9 14.1,-15.2 0.2,-0.1 0.4,-0.1 0.7,-0.1 z m 0,1 h -0.7 c -7.6,0.3 -13.5,6.7 -13.2,14.3 0.3,7.6 6.7,13.5 14.3,13.2 7.6,-0.3 13.5,-6.7 13.2,-14.3 -0.4,-7.4 -6.4,-13.2 -13.6,-13.2 z m 0,1.2 c 6.6,0.1 12,5.3 12.3,12 0.3,6.9 -5.1,12.7 -12,13 -6.9,0.3 -12.7,-5.1 -13,-12 -0.3,-6.9 5.1,-12.7 12,-13 z m -0.7,1.4 c -0.4,0 -0.7,0.2 -1,0.5 -0.5,0.6 -0.5,1.5 0.1,2 0.1,0.1 0.3,0.2 0.5,0.3 l 0.1,1.7 c -1.3,0.2 -2.6,0.7 -3.6,1.7 l -0.8,-0.7 c 0.1,-0.5 0,-1.1 -0.4,-1.5 -0.6,-0.5 -1.5,-0.5 -2,0.1 -0.5,0.6 -0.5,1.5 0.1,2 0.4,0.4 1,0.5 1.5,0.3 l 0.8,0.7 c -0.9,1.1 -1.3,2.4 -1.4,3.8 l -1.5,0.1 c -0.1,-0.2 -0.2,-0.3 -0.3,-0.5 -0.6,-0.5 -1.5,-0.5 -2,0.1 -0.5,0.6 -0.5,1.5 0.1,2.1 0.6,0.5 1.5,0.5 2,-0.1 0.1,-0.1 0.2,-0.2 0.2,-0.3 l 1.6,-0.1 c 0.2,1.3 0.7,2.5 1.7,3.6 l -0.7,0.8 c -0.5,-0.2 -1.1,0 -1.5,0.4 -0.5,0.6 -0.5,1.5 0.1,2 0.6,0.5 1.5,0.5 2,-0.1 0.4,-0.4 0.5,-1 0.3,-1.5 l 0.7,-0.8 c 1.1,0.8 2.4,1.3 3.7,1.4 l 0.1,1.9 -0.1,0.1 c -0.5,0.6 -0.5,1.5 0.1,2.1 0.6,0.5 1.5,0.5 2,-0.1 0.5,-0.6 0.5,-1.5 -0.1,-2 -0.2,-0.2 -0.4,-0.3 -0.7,-0.3 l -0.1,-1.7 c 1.3,-0.2 2.6,-0.7 3.6,-1.7 l 0.8,0.8 c -0.1,0.5 0,1.1 0.4,1.5 0.6,0.5 1.5,0.5 2.1,-0.1 0.5,-0.6 0.5,-1.5 -0.1,-2 -0.4,-0.4 -1,-0.5 -1.5,-0.3 l -0.8,-0.8 c 0.8,-1.1 1.3,-2.4 1.4,-3.8 l 1.7,-0.1 c 0.1,0.2 0.2,0.4 0.4,0.5 0.6,0.5 1.5,0.5 2,-0.1 0.5,-0.6 0.5,-1.5 -0.1,-2 -0.6,-0.5 -1.5,-0.5 -2.1,0.1 -0.1,0.1 -0.1,0.2 -0.2,0.3 l -1.9,0.1 c -0.2,-1.3 -0.7,-2.5 -1.7,-3.6 l 0.8,-0.9 c 0.5,0.1 1.1,0 1.5,-0.4 0.5,-0.6 0.5,-1.5 -0.1,-2 -0.6,-0.5 -1.5,-0.5 -2,0.1 -0.4,0.4 -0.5,1 -0.3,1.5 l -0.8,0.8 c -1.1,-0.8 -2.4,-1.3 -3.7,-1.4 l -0.1,-1.8 c 0.1,-0.1 0.2,-0.1 0.3,-0.2 0.5,-0.6 0.5,-1.5 -0.1,-2 -0.3,-0.4 -0.7,-0.6 -1,-0.5 z m 0,1.2 c 0.1,0 0.1,0 0.1,0.1 0.1,0.1 0.1,0.2 0,0.3 -0.1,0.1 -0.2,0.1 -0.3,0 -0.1,-0.1 -0.1,-0.2 0,-0.3 0.1,-0.1 0.2,-0.1 0.2,-0.1 z m 6.6,2.9 c 0.1,0 0.1,0 0.1,0.1 0.1,0.1 0.1,0.2 0,0.3 -0.1,0.1 -0.2,0.1 -0.3,0 -0.1,-0.1 -0.1,-0.2 0,-0.3 0.1,0 0.2,-0.1 0.2,-0.1 z m -12.8,0.7 c 0,0 0.1,0 0.1,0.1 0.1,0.1 0.1,0.2 0,0.3 -0.1,0.1 -0.2,0.1 -0.3,0 -0.1,-0.1 -0.1,-0.2 0,-0.3 0.1,-0.1 0.1,-0.1 0.2,-0.1 z m 6.4,0.8 c 1.4,-0.1 2.8,0.4 3.9,1.4 2.2,2 2.4,5.5 0.3,7.7 -2,2.2 -5.5,2.4 -7.7,0.3 -2.2,-2 -2.4,-5.5 -0.3,-7.7 1.1,-1 2.4,-1.6 3.8,-1.7 z m -1.551238,2.13863 c -0.4,0 -0.79375,0.2 -1.09375,0.5 -0.5,0.6 -0.5,1.5 0.1,2 0.6,0.5 1.5,0.5 2,-0.1 0.5,-0.6 0.5,-1.5 -0.1,-2 -0.2,-0.2 -0.50625,-0.4 -0.90625,-0.4 z m 0.0063,1.3 c 0,0 0.1,0 0.1,0.1 0.1,0.1 0.1,0.2 0,0.3 -0.1,0.1 -0.2,0.1 -0.3,0 -0.1,-0.1 -0.1,-0.2 0,-0.3 0.1,-0.1 0.1,-0.1 0.2,-0.1 z M 39.5,297.5 c 0.1,0 0.1,0 0.1,0.1 0.1,0.1 0.1,0.2 0,0.3 -0.1,0.1 -0.2,0.1 -0.3,0 -0.1,-0.1 -0.1,-0.2 0,-0.3 0.1,-0.1 0.2,-0.1 0.2,-0.1 z m -8.312483,-1.96771 c 0,-0.4 -1.804854,1.48164 -2.104854,1.78164 -0.5,0.6 -2.024699,1.76516 -1.424699,2.26516 0.6,0.5 1.610485,-1.0026 2.110485,-1.6026 0.5,-0.6 2.311961,-1.87565 1.711961,-2.37565 -0.2,-0.3 -0.292893,0.3315 -0.292893,-0.0685 z m 1.827379,2.82956 c -0.4,0 -0.7,0.2 -1,0.5 -0.5,0.6 -0.5,1.5 0.1,2 0.6,0.5 1.5,0.5 2,-0.1 0.5,-0.6 0.5,-1.5 -0.1,-2 -0.3,-0.3 -0.7,-0.4 -1,-0.4 z M 20.2,298.2 c 0.1,0 0.1,0 0.1,0.1 0.1,0.1 0.1,0.2 0,0.3 -0.1,0.1 -0.2,0.1 -0.3,0 -0.1,-0.1 -0.1,-0.2 0,-0.3 0.1,-0.1 0.2,-0.1 0.2,-0.1 z m 9.231362,-0.80479 c 0,0 0.1,0 0.1,0.1 0.1,0.1 0.1,0.2 0,0.3 -0.1,0.1 -0.2,0.1 -0.3,0 -0.1,-0.1 -0.1,-0.2 0,-0.3 0.1,0 0.2,-0.1 0.2,-0.1 z m 3.649825,2.07825 c 0.1,0 0.1,0 0.1,0.1 0.1,0.1 0.1,0.2 0,0.3 -0.1,0.1 -0.2,0.1 -0.3,0 -0.1,-0.1 -0.1,-0.2 0,-0.3 0.1,-0.1 0.2,-0.1 0.2,-0.1 z M 36.5,303.9 c 0,0 0.1,0 0.1,0.1 0.1,0.1 0.1,0.2 0,0.3 -0.1,0.1 -0.2,0.1 -0.3,0 -0.1,-0.1 -0.1,-0.2 0,-0.3 0.1,0 0.1,0 0.2,-0.1 z m -12.9,0.5 c 0.1,0 0.1,0 0.1,0.1 0.1,0.1 0.1,0.2 0,0.3 -0.1,0.1 -0.2,0.1 -0.3,0 -0.1,-0.1 -0.1,-0.2 0,-0.3 0.1,0 0.2,-0.1 0.2,-0.1 z m 19.4,2.4 6.8,6.4 -3.4,3.7 -6.8,-6.4 c 1.3,-1.1 2.5,-2.3 3.4,-3.7 z m -12.6,0.7 c 0.1,0 0.1,0 0.1,0.1 0.1,0.1 0.1,0.2 0,0.3 -0.1,0.1 -0.2,0.1 -0.3,0 -0.1,-0.1 -0.1,-0.2 0,-0.3 0.1,0 0.2,-0.1 0.2,-0.1 z"
   id="path33"
   sodipodi:nodetypes="ccscccsccccccccccccccccscsscsccssccccccccccsccccccscccccccscccccccscccccccccccccssscccccsccccccccccssscccssccccssscsscccsscsscsccssscccssscscsscsscsscsccssscccssccccssscccssccccsscccccccccssccc" />
</g>
<path
   style="fill:none;stroke:#000000;stroke-width:1.038;stroke-linecap:butt;stroke-linejoin:miter;stroke-miterlimit:4;stroke-dasharray:none;stroke-opacity:1"
   d="m 29.710062,19.152165 c -0.0054,-0.51758 0.950789,-0.817655 1.153433,-0.421341 0.257485,0.503567 0.05566,0.585796 -0.214758,0.930451 -0.159495,0.203274 -0.667532,0.706535 -0.558091,0.813553 0.123346,0.120614 1.230419,0.09409 1.461026,0.09409"
   id="path933"
   sodipodi:nodetypes="csssc" /><text
   xml:space="preserve"
   style="font-style:normal;font-variant:normal;font-weight:bold;font-stretch:normal;font-size:23.4458px;line-height:0.85;font-family:'Arial Nova';-inkscape-font-specification:'Arial Nova Bold';letter-spacing:-0.701743px;fill:#000000;fill-opacity:1;stroke:none;stroke-width:0.586144"
   x="48.847664"
   y="24.377497"
   id="text945"><tspan
     sodipodi:role="line"
     id="tspan943"
     x="48.847664"
     y="24.377497"
     style="font-style:normal;font-variant:normal;font-weight:bold;font-stretch:normal;font-family:'Arial Nova';-inkscape-font-specification:'Arial Nova Bold';stroke-width:0.586144">CONSO</tspan></text><text
   xml:space="preserve"
   style="font-style:normal;font-weight:normal;font-size:23.8037px;line-height:1.25;font-family:sans-serif;fill:#000000;fill-opacity:1;stroke:none;stroke-width:0.595094"
   x="133.20255"
   y="25.229342"
   id="text949"><tspan
     sodipodi:role="line"
     id="tspan947"
     x="133.20255"
     y="25.229342"
     style="stroke-width:0.595094">TRACKER</tspan></text></svg>
